<svg xmlns="http://www.w3.org/2000/svg" xmlns:xlink="http://www.w3.org/1999/xlink" width="500" zoomAndPan="magnify" viewBox="0 0 375 374.999991" height="500" preserveAspectRatio="xMidYMid meet" version="1.2"><defs/><g id="02c2bee058"><g style="fill:#000000;fill-opacity:1;"><g transform="translate(372.662764, 374.683299)"><path style="stroke:none" d="M 0.328125 -0.359375 C 0.378906 -0.347656 0.421875 -0.328125 0.453125 -0.296875 C 0.492188 -0.265625 0.515625 -0.226562 0.515625 -0.1875 C 0.515625 -0.144531 0.503906 -0.109375 0.484375 -0.078125 C 0.460938 -0.0546875 0.4375 -0.0351562 0.40625 -0.015625 C 0.375 -0.00390625 0.34375 0 0.3125 0 C 0.289062 0 0.265625 0 0.234375 0 C 0.222656 0 0.210938 0 0.203125 0 C 0.191406 0 0.175781 0 0.15625 0 L 0.09375 0 C 0.0820312 0 0.0664062 0 0.046875 0 C 0.046875 -0.0078125 0.046875 -0.015625 0.046875 -0.015625 C 0.0664062 -0.015625 0.0820312 -0.015625 0.09375 -0.015625 C 0.101562 -0.015625 0.109375 -0.0195312 0.109375 -0.03125 C 0.117188 -0.0390625 0.125 -0.0546875 0.125 -0.078125 L 0.125 -0.546875 C 0.125 -0.566406 0.117188 -0.582031 0.109375 -0.59375 C 0.109375 -0.601562 0.101562 -0.609375 0.09375 -0.609375 C 0.0820312 -0.609375 0.0664062 -0.609375 0.046875 -0.609375 C 0.046875 -0.617188 0.046875 -0.625 0.046875 -0.625 L 0.09375 -0.625 C 0.125 -0.625 0.144531 -0.625 0.15625 -0.625 C 0.175781 -0.625 0.191406 -0.625 0.203125 -0.625 C 0.210938 -0.625 0.21875 -0.625 0.21875 -0.625 C 0.238281 -0.625 0.257812 -0.625 0.28125 -0.625 C 0.332031 -0.625 0.375 -0.613281 0.40625 -0.59375 C 0.4375 -0.570312 0.453125 -0.539062 0.453125 -0.5 C 0.453125 -0.46875 0.441406 -0.4375 0.421875 -0.40625 C 0.398438 -0.382812 0.367188 -0.367188 0.328125 -0.359375 Z M 0.265625 -0.609375 C 0.242188 -0.609375 0.226562 -0.609375 0.21875 -0.609375 C 0.207031 -0.609375 0.195312 -0.601562 0.1875 -0.59375 C 0.1875 -0.582031 0.1875 -0.566406 0.1875 -0.546875 L 0.1875 -0.359375 L 0.234375 -0.34375 C 0.285156 -0.34375 0.320312 -0.351562 0.34375 -0.375 C 0.375 -0.40625 0.390625 -0.441406 0.390625 -0.484375 C 0.390625 -0.523438 0.378906 -0.554688 0.359375 -0.578125 C 0.335938 -0.597656 0.304688 -0.609375 0.265625 -0.609375 Z M 0.296875 -0.015625 C 0.335938 -0.015625 0.367188 -0.0234375 0.390625 -0.046875 C 0.421875 -0.078125 0.4375 -0.113281 0.4375 -0.15625 C 0.4375 -0.207031 0.421875 -0.25 0.390625 -0.28125 C 0.359375 -0.3125 0.316406 -0.328125 0.265625 -0.328125 C 0.242188 -0.328125 0.21875 -0.328125 0.1875 -0.328125 L 0.1875 -0.078125 C 0.1875 -0.0664062 0.1875 -0.0546875 0.1875 -0.046875 C 0.195312 -0.0351562 0.207031 -0.0234375 0.21875 -0.015625 C 0.238281 -0.015625 0.265625 -0.015625 0.296875 -0.015625 Z M 0.296875 -0.015625 "/></g></g><g style="fill:#000000;fill-opacity:1;"><g transform="translate(373.220766, 374.683299)"><path style="stroke:none" d="M 0.421875 -0.046875 L 0.3125 0 C 0.3125 0.0078125 0.3125 0.015625 0.3125 0.015625 C 0.300781 0.015625 0.289062 0.0078125 0.28125 0 C 0.269531 -0.0195312 0.265625 -0.0390625 0.265625 -0.0625 L 0.21875 -0.015625 C 0.195312 -0.00390625 0.179688 0 0.171875 0 C 0.160156 0 0.148438 0 0.140625 0 C 0.109375 0 0.0859375 -0.00390625 0.078125 -0.015625 C 0.0664062 -0.0234375 0.0625 -0.0390625 0.0625 -0.0625 C 0.0625 -0.0820312 0.0664062 -0.0976562 0.078125 -0.109375 C 0.0976562 -0.128906 0.125 -0.144531 0.15625 -0.15625 L 0.265625 -0.203125 L 0.265625 -0.265625 C 0.265625 -0.335938 0.242188 -0.375 0.203125 -0.375 C 0.179688 -0.375 0.164062 -0.363281 0.15625 -0.34375 C 0.144531 -0.332031 0.132812 -0.316406 0.125 -0.296875 C 0.125 -0.285156 0.117188 -0.273438 0.109375 -0.265625 C 0.109375 -0.265625 0.101562 -0.265625 0.09375 -0.265625 C 0.0820312 -0.265625 0.0703125 -0.265625 0.0625 -0.265625 C 0.0625 -0.273438 0.0625 -0.285156 0.0625 -0.296875 C 0.0625 -0.304688 0.0703125 -0.316406 0.09375 -0.328125 C 0.113281 -0.347656 0.132812 -0.363281 0.15625 -0.375 C 0.1875 -0.382812 0.210938 -0.390625 0.234375 -0.390625 C 0.265625 -0.390625 0.285156 -0.378906 0.296875 -0.359375 C 0.316406 -0.347656 0.328125 -0.328125 0.328125 -0.296875 L 0.328125 -0.109375 C 0.328125 -0.0859375 0.328125 -0.0703125 0.328125 -0.0625 C 0.335938 -0.0507812 0.347656 -0.046875 0.359375 -0.046875 C 0.378906 -0.046875 0.394531 -0.046875 0.40625 -0.046875 Z M 0.265625 -0.078125 L 0.265625 -0.1875 L 0.171875 -0.140625 C 0.148438 -0.140625 0.132812 -0.132812 0.125 -0.125 C 0.125 -0.113281 0.125 -0.101562 0.125 -0.09375 C 0.125 -0.0703125 0.128906 -0.0546875 0.140625 -0.046875 C 0.148438 -0.0351562 0.160156 -0.03125 0.171875 -0.03125 C 0.191406 -0.03125 0.210938 -0.0351562 0.234375 -0.046875 Z M 0.265625 -0.078125 "/></g></g><g style="fill:#000000;fill-opacity:1;"><g transform="translate(373.639768, 374.683299)"><path style="stroke:none" d="M 0.296875 -0.109375 C 0.296875 -0.078125 0.285156 -0.0507812 0.265625 -0.03125 C 0.242188 -0.0078125 0.210938 0.00390625 0.171875 0.015625 C 0.160156 0.0351562 0.15625 0.0507812 0.15625 0.0625 C 0.15625 0.0703125 0.15625 0.078125 0.15625 0.078125 C 0.164062 0.0859375 0.179688 0.0976562 0.203125 0.109375 C 0.222656 0.109375 0.238281 0.113281 0.25 0.125 C 0.257812 0.144531 0.265625 0.160156 0.265625 0.171875 C 0.265625 0.203125 0.253906 0.226562 0.234375 0.25 C 0.210938 0.269531 0.1875 0.28125 0.15625 0.28125 C 0.132812 0.28125 0.117188 0.273438 0.109375 0.265625 C 0.0976562 0.253906 0.09375 0.242188 0.09375 0.234375 C 0.09375 0.222656 0.09375 0.210938 0.09375 0.203125 C 0.101562 0.203125 0.113281 0.203125 0.125 0.203125 C 0.132812 0.210938 0.144531 0.222656 0.15625 0.234375 C 0.164062 0.242188 0.175781 0.25 0.1875 0.25 C 0.207031 0.25 0.21875 0.238281 0.21875 0.21875 C 0.21875 0.195312 0.210938 0.179688 0.203125 0.171875 C 0.191406 0.160156 0.171875 0.144531 0.140625 0.125 C 0.128906 0.113281 0.125 0.109375 0.125 0.109375 C 0.125 0.109375 0.125 0.101562 0.125 0.09375 C 0.132812 0.0703125 0.144531 0.046875 0.15625 0.015625 C 0.113281 0.015625 0.0820312 0.00390625 0.0625 -0.015625 C 0.0507812 -0.015625 0.046875 -0.0195312 0.046875 -0.03125 L 0.046875 -0.109375 C 0.0546875 -0.109375 0.0625 -0.109375 0.0625 -0.109375 C 0.0703125 -0.078125 0.0859375 -0.0507812 0.109375 -0.03125 C 0.128906 -0.0195312 0.15625 -0.015625 0.1875 -0.015625 C 0.207031 -0.015625 0.222656 -0.0195312 0.234375 -0.03125 C 0.242188 -0.0390625 0.25 -0.0546875 0.25 -0.078125 C 0.25 -0.0976562 0.238281 -0.113281 0.21875 -0.125 C 0.207031 -0.144531 0.1875 -0.160156 0.15625 -0.171875 C 0.132812 -0.179688 0.113281 -0.191406 0.09375 -0.203125 C 0.0820312 -0.210938 0.0703125 -0.222656 0.0625 -0.234375 C 0.0625 -0.242188 0.0625 -0.257812 0.0625 -0.28125 C 0.0625 -0.320312 0.0703125 -0.347656 0.09375 -0.359375 C 0.125 -0.378906 0.15625 -0.390625 0.1875 -0.390625 C 0.21875 -0.390625 0.242188 -0.390625 0.265625 -0.390625 C 0.265625 -0.378906 0.265625 -0.375 0.265625 -0.375 C 0.265625 -0.363281 0.265625 -0.351562 0.265625 -0.34375 L 0.265625 -0.296875 C 0.265625 -0.304688 0.257812 -0.316406 0.25 -0.328125 C 0.238281 -0.347656 0.222656 -0.359375 0.203125 -0.359375 C 0.179688 -0.367188 0.164062 -0.375 0.15625 -0.375 C 0.132812 -0.375 0.117188 -0.367188 0.109375 -0.359375 C 0.0976562 -0.359375 0.09375 -0.347656 0.09375 -0.328125 C 0.09375 -0.304688 0.0976562 -0.285156 0.109375 -0.265625 C 0.128906 -0.253906 0.15625 -0.238281 0.1875 -0.21875 C 0.207031 -0.207031 0.222656 -0.195312 0.234375 -0.1875 C 0.253906 -0.1875 0.269531 -0.175781 0.28125 -0.15625 C 0.289062 -0.144531 0.296875 -0.128906 0.296875 -0.109375 Z M 0.296875 -0.109375 "/></g></g><g style="fill:#000000;fill-opacity:1;"><g transform="translate(373.97777, 374.683299)"><path style="stroke:none" d="M 0.046875 0 C 0.0351562 0 0.03125 0 0.03125 0 C 0.03125 -0.0078125 0.0351562 -0.015625 0.046875 -0.015625 C 0.0546875 -0.015625 0.0664062 -0.015625 0.078125 -0.015625 C 0.0859375 -0.015625 0.09375 -0.0195312 0.09375 -0.03125 C 0.101562 -0.0390625 0.109375 -0.0546875 0.109375 -0.078125 L 0.109375 -0.59375 C 0.109375 -0.625 0.101562 -0.644531 0.09375 -0.65625 C 0.09375 -0.664062 0.0859375 -0.671875 0.078125 -0.671875 C 0.0664062 -0.671875 0.0507812 -0.664062 0.03125 -0.65625 L 0.015625 -0.65625 L 0.140625 -0.71875 C 0.148438 -0.71875 0.15625 -0.71875 0.15625 -0.71875 L 0.15625 -0.078125 C 0.15625 -0.0546875 0.15625 -0.0390625 0.15625 -0.03125 C 0.164062 -0.03125 0.175781 -0.0234375 0.1875 -0.015625 C 0.195312 -0.015625 0.207031 -0.015625 0.21875 -0.015625 C 0.226562 -0.015625 0.234375 -0.0078125 0.234375 0 C 0.234375 0 0.226562 0 0.21875 0 C 0.207031 0 0.195312 0 0.1875 0 L 0.078125 0 C 0.0664062 0 0.0546875 0 0.046875 0 Z M 0.046875 0 "/></g></g><g style="fill:#000000;fill-opacity:1;"><g transform="translate(374.235771, 374.683299)"><path style="stroke:none" d="M 0.046875 0 C 0.046875 -0.0078125 0.046875 -0.015625 0.046875 -0.015625 C 0.0664062 -0.015625 0.0820312 -0.015625 0.09375 -0.015625 C 0.101562 -0.015625 0.109375 -0.0195312 0.109375 -0.03125 C 0.109375 -0.0390625 0.109375 -0.0546875 0.109375 -0.078125 L 0.109375 -0.265625 C 0.109375 -0.285156 0.109375 -0.300781 0.109375 -0.3125 C 0.109375 -0.332031 0.0976562 -0.34375 0.078125 -0.34375 C 0.0664062 -0.34375 0.0507812 -0.335938 0.03125 -0.328125 L 0.15625 -0.390625 L 0.171875 -0.390625 C 0.171875 -0.378906 0.171875 -0.363281 0.171875 -0.34375 C 0.171875 -0.320312 0.171875 -0.296875 0.171875 -0.265625 L 0.171875 -0.078125 C 0.171875 -0.0546875 0.171875 -0.0390625 0.171875 -0.03125 C 0.179688 -0.0195312 0.1875 -0.015625 0.1875 -0.015625 C 0.195312 -0.015625 0.210938 -0.015625 0.234375 -0.015625 C 0.234375 -0.015625 0.234375 -0.0078125 0.234375 0 C 0.222656 0 0.210938 0 0.203125 0 L 0.09375 0 C 0.0820312 0 0.0664062 0 0.046875 0 Z M 0.046875 0 "/></g></g><g style="fill:#000000;fill-opacity:1;"><g transform="translate(374.508771, 374.683299)"><path style="stroke:none" d="M 0.484375 -0.015625 C 0.484375 -0.015625 0.484375 -0.0078125 0.484375 0 C 0.460938 0 0.453125 0 0.453125 0 L 0.3125 0 C 0.300781 0 0.289062 0 0.28125 0 C 0.28125 -0.0078125 0.28125 -0.015625 0.28125 -0.015625 C 0.3125 -0.015625 0.328125 -0.0195312 0.328125 -0.03125 C 0.328125 -0.0390625 0.320312 -0.046875 0.3125 -0.046875 L 0.1875 -0.21875 L 0.140625 -0.1875 L 0.140625 -0.078125 C 0.140625 -0.0546875 0.140625 -0.0390625 0.140625 -0.03125 C 0.148438 -0.0195312 0.160156 -0.015625 0.171875 -0.015625 C 0.179688 -0.015625 0.191406 -0.015625 0.203125 -0.015625 C 0.210938 -0.015625 0.21875 -0.0078125 0.21875 0 C 0.21875 0 0.210938 0 0.203125 0 C 0.191406 0 0.179688 0 0.171875 0 L 0.0625 0 C 0.0507812 0 0.0390625 0 0.03125 0 C 0.0195312 0 0.015625 0 0.015625 0 C 0.015625 -0.0078125 0.0195312 -0.015625 0.03125 -0.015625 C 0.0390625 -0.015625 0.0507812 -0.015625 0.0625 -0.015625 C 0.0703125 -0.015625 0.078125 -0.0195312 0.078125 -0.03125 C 0.0859375 -0.0390625 0.09375 -0.0546875 0.09375 -0.078125 L 0.09375 -0.59375 C 0.09375 -0.625 0.0859375 -0.644531 0.078125 -0.65625 C 0.078125 -0.664062 0.0703125 -0.671875 0.0625 -0.671875 C 0.0507812 -0.671875 0.0351562 -0.664062 0.015625 -0.65625 C 0.00390625 -0.65625 0 -0.65625 0 -0.65625 L 0.125 -0.71875 L 0.140625 -0.71875 L 0.140625 -0.203125 L 0.28125 -0.3125 C 0.300781 -0.320312 0.3125 -0.332031 0.3125 -0.34375 C 0.3125 -0.363281 0.289062 -0.375 0.25 -0.375 C 0.25 -0.382812 0.25 -0.390625 0.25 -0.390625 C 0.269531 -0.390625 0.285156 -0.390625 0.296875 -0.390625 L 0.4375 -0.390625 C 0.445312 -0.390625 0.457031 -0.390625 0.46875 -0.390625 C 0.46875 -0.390625 0.46875 -0.382812 0.46875 -0.375 C 0.445312 -0.375 0.421875 -0.367188 0.390625 -0.359375 C 0.359375 -0.347656 0.328125 -0.328125 0.296875 -0.296875 L 0.234375 -0.25 L 0.375 -0.078125 C 0.40625 -0.0351562 0.441406 -0.015625 0.484375 -0.015625 Z M 0.484375 -0.015625 "/></g></g></g></svg>